<svg width="500" height="500" viewBox="0 0 500 500" fill="none" xmlns="http://www.w3.org/2000/svg">
<rect width="500" height="500" rx="100" fill="#F6F6F6"/>
<path d="M289.483 386.914C251.11 386.914 231.924 374.181 231.924 348.714C231.924 334.194 241.085 305.213 259.407 261.77C277.729 218.211 286.891 188.02 286.891 171.195C286.891 161.746 283.376 155.062 276.347 151.145C269.433 147.111 259.35 145.095 246.098 145.095C232.961 145.095 219.594 146.247 205.996 148.552C192.398 150.856 183.641 152.009 179.723 152.009C175.92 152.009 174.019 150.28 174.019 146.823C174.019 142.329 182.143 136.395 198.391 129.02C229.619 114.73 264.017 107.586 301.583 107.586C331.313 107.586 353.554 112.944 368.304 123.661C383.169 134.378 390.602 151.778 390.602 175.862C390.602 190.151 388.066 208.07 382.996 229.619C377.926 251.053 372.855 271.219 367.785 290.117C362.83 309.016 360.353 321.979 360.353 329.009C360.353 336.038 361.678 340.936 364.328 343.701C367.67 347.158 374.123 348.887 383.688 348.887C389.564 348.887 392.849 349.521 393.54 350.788C394.347 352.056 394.75 353.381 394.75 354.764C394.75 360.064 392.33 364.386 387.49 367.728C369.168 380.519 336.499 386.914 289.483 386.914ZM188.884 261.77L233.134 260.732C241.2 260.732 245.233 263.095 245.233 267.819C245.233 271.161 243.332 273.812 239.529 275.771C226.162 282.569 203.115 286.891 170.389 288.734C161.055 307.172 156.388 323.362 156.388 337.306C156.388 343.528 157.194 349.29 158.808 354.591C160.421 359.776 161.228 363.521 161.228 365.826C161.228 371.934 157.367 376.082 149.646 378.271C141.926 380.346 130.575 381.383 115.595 381.383C100.729 381.383 90.9346 380.058 86.21 377.407C81.4854 374.642 79.123 369.802 79.123 362.888C79.123 349.981 82.8682 335.75 90.3584 320.193C97.9639 304.637 107.644 289.771 119.397 275.598C131.151 261.309 144.173 247.308 158.462 233.595C172.751 219.882 186.637 208.07 200.119 198.16C230.08 175.92 250.477 164.8 261.309 164.8C266.264 164.8 268.741 166.298 268.741 169.294C268.741 172.29 266.321 175.632 261.481 179.319C251.226 186.81 238.953 198.218 224.664 213.544C210.375 228.87 197.642 244.945 186.464 261.77H188.884Z" fill="url(#paint0_linear_65_2)"/>
<defs>
<linearGradient id="paint0_linear_65_2" x1="167.5" y1="26" x2="167.5" y2="304" gradientUnits="userSpaceOnUse">
<stop stop-color="#FE6617"/>
<stop offset="1" stop-color="#FF731C"/>
</linearGradient>
</defs>
</svg>
