<svg width="250" height="274" viewBox="0 0 250 274" fill="none" xmlns="http://www.w3.org/2000/svg">
<rect y="22.1617" width="250" height="251.838" rx="25" fill="#D9D9D9"/>
<path d="M102.441 249C89.2578 249 77.832 246.51 68.1641 241.529C58.4961 236.451 50.9766 229.664 45.6055 221.168C40.332 212.672 37.6953 203.346 37.6953 193.189V104.127C37.6953 93.873 40.332 84.5469 45.6055 76.1484C50.9766 67.6523 58.4961 60.9141 68.1641 55.9336C77.832 50.8555 89.2578 48.3164 102.441 48.3164H147.559C160.742 48.3164 172.168 50.8555 181.836 55.9336C191.602 60.9141 199.121 67.6523 204.395 76.1484C209.668 84.5469 212.305 93.873 212.305 104.127V193.189C212.305 203.346 209.668 212.672 204.395 221.168C199.121 229.664 191.602 236.451 181.836 241.529C172.168 246.51 160.742 249 147.559 249H102.441ZM81.4941 182.643H98.9258L102.734 137.965H156.787L161.035 182.643H177.734L166.162 73.5117L157.08 64.4297L137.598 61.5H121.924L102.441 64.4297L93.5059 73.5117L81.4941 182.643ZM104.053 123.902L108.447 79.2246L122.656 77.0273H137.012L150.781 79.2246L155.615 123.902H104.053Z" fill="url(#paint0_linear_35_10)"/>
<defs>
<linearGradient id="paint0_linear_35_10" x1="125" y1="0" x2="125" y2="251.838" gradientUnits="userSpaceOnUse">
<stop stop-color="#1A1A17"/>
<stop offset="1" stop-color="#FF5800"/>
</linearGradient>
</defs>
</svg>
