<svg width="270" height="98" viewBox="0 0 270 98" fill="none" xmlns="http://www.w3.org/2000/svg">
<path d="M16.9819 83.608C13.1419 83.608 9.94188 82.328 7.38188 79.768C4.88587 77.272 3.63787 74.36 3.63787 71.032C3.63787 67.64 4.43787 64.504 6.03787 61.624C7.63788 58.68 9.90988 55.96 12.8539 53.464C15.8619 50.968 19.7659 48.92 24.5659 47.32C29.3659 45.656 34.6779 44.728 40.5019 44.536C43.8939 36.152 46.9019 26.776 49.5259 16.408C49.5899 16.024 49.6219 15.544 49.6219 14.968C49.6219 14.328 49.3019 13.784 48.6619 13.336V12.376C54.1659 11.352 59.1899 10.84 63.7339 10.84L69.4939 11.224C71.1579 14.168 72.0859 18.264 72.2779 23.512C72.4699 28.696 72.5979 37.72 72.6619 50.584C79.5739 53.592 85.4939 57.4 90.4219 62.008C90.1659 62.84 89.6539 63.672 88.8859 64.504C88.1819 65.272 87.5099 65.848 86.8699 66.232L85.9099 66.808C82.1339 63.096 77.7499 59.928 72.7579 57.304C72.8859 60.952 73.2379 64.024 73.8139 66.52C74.7099 70.616 75.7659 72.664 76.9819 72.664C77.6859 72.664 78.5179 72.504 79.4779 72.184L80.9179 75.928C76.5019 78.744 72.2779 80.152 68.2459 80.152C61.5899 80.152 58.2619 75.128 58.2619 65.08V52.504C53.7819 51.416 49.7179 50.744 46.0699 50.488C37.7499 72.568 28.0539 83.608 16.9819 83.608ZM38.1019 50.392C30.8699 50.968 24.8539 53.496 20.0539 57.976C15.2539 62.456 12.8539 66.648 12.8539 70.552C12.8539 74.456 14.3579 76.408 17.3659 76.408C23.5099 76.408 30.4219 67.736 38.1019 50.392ZM57.2059 18.52C57.0779 18.456 56.8219 18.424 56.4379 18.424C56.0539 18.424 55.7979 18.456 55.6699 18.52C55.0939 23.384 52.5979 32.12 48.1819 44.728C51.3179 44.92 54.6779 45.368 58.2619 46.072C58.2619 30.328 57.9099 21.144 57.2059 18.52ZM85.3001 79.288H83.4761C83.4761 76.28 84.3721 70.52 86.1641 62.008C88.0201 53.496 88.9481 48.664 88.9481 47.512C88.9481 45.4 88.0521 43.16 86.2601 40.792L85.3961 39.64L85.4921 38.392C88.9481 37.432 94.4841 36.952 102.1 36.952C102.996 38.168 103.444 40.152 103.444 42.904C109.204 38.616 113.78 36.472 117.172 36.472C121.46 36.472 123.988 38.68 124.756 43.096C126.484 41.688 128.724 40.248 131.476 38.776C134.292 37.24 136.788 36.472 138.964 36.472C141.204 36.472 143.06 37.208 144.532 38.68C146.004 40.088 146.74 42.072 146.74 44.632C146.74 47.192 146.036 51.416 144.628 57.304C143.22 63.192 142.516 67.16 142.516 69.208C142.516 71.192 142.804 72.184 143.38 72.184C143.764 72.184 145.076 71.576 147.316 70.36L148.372 69.784L150.1 73.144C148.436 74.808 146.164 76.408 143.284 77.944C140.468 79.416 137.972 80.152 135.796 80.152C130.996 80.152 128.596 77.432 128.596 71.992C128.596 70.008 129.268 66.04 130.612 60.088C132.02 54.072 132.724 50.168 132.724 48.376C132.724 46.52 132.18 45.592 131.092 45.592C129.236 45.592 127.124 46.296 124.756 47.704C124.628 48.984 123.732 53.336 122.068 60.76C120.468 68.184 119.668 73.944 119.668 78.04C117.812 78.872 113.46 79.288 106.612 79.288C106.484 78.584 106.42 76.888 106.42 74.2C106.42 71.512 107.156 66.936 108.628 60.472C110.164 54.008 110.932 49.912 110.932 48.184C110.932 46.456 110.324 45.592 109.108 45.592C107.188 45.592 105.076 46.36 102.772 47.896C102.644 48.472 102.004 51.288 100.852 56.344C98.5481 66.456 97.3961 73.656 97.3961 77.944C95.1561 78.84 91.1241 79.288 85.3001 79.288ZM173.08 42.424C173.08 45.112 172.216 49.752 170.488 56.344C168.76 62.872 167.896 67.16 167.896 69.208C167.896 71.192 168.184 72.184 168.76 72.184C169.144 72.184 170.616 71.576 173.176 70.36L174.328 69.784L175.96 73.144C175.384 73.656 174.616 74.296 173.656 75.064C172.696 75.832 170.904 76.888 168.28 78.232C165.656 79.512 163.224 80.152 160.984 80.152C158.744 80.152 156.984 79.48 155.704 78.136C154.424 76.728 153.784 74.872 153.784 72.568C153.784 70.2 154.584 66.04 156.184 60.088C157.784 54.072 158.584 50.168 158.584 48.376C158.584 45.688 157.752 43.16 156.088 40.792L155.224 39.64L155.32 38.392C158.712 37.432 164.216 36.952 171.832 36.952C172.664 37.912 173.08 39.736 173.08 42.424ZM162.136 26.488C160.856 25.208 160.216 23.512 160.216 21.4C160.216 19.288 161.08 17.432 162.808 15.832C164.6 14.232 166.648 13.432 168.952 13.432C171.256 13.432 173.048 14.072 174.328 15.352C175.608 16.632 176.248 18.328 176.248 20.44C176.248 22.488 175.32 24.312 173.464 25.912C171.672 27.512 169.656 28.312 167.416 28.312C165.176 28.312 163.416 27.704 162.136 26.488ZM181.956 79.288H180.132C180.132 76.28 181.028 70.52 182.82 62.008C184.676 53.496 185.604 48.664 185.604 47.512C185.604 45.4 184.708 43.16 182.916 40.792L182.052 39.64L182.148 38.392C185.604 37.432 191.14 36.952 198.756 36.952C199.588 38.04 200.036 40.024 200.1 42.904C205.668 38.616 210.372 36.472 214.212 36.472C216.516 36.472 218.34 37.272 219.684 38.872C221.092 40.472 221.796 42.488 221.796 44.92C221.796 47.288 221.06 51.416 219.588 57.304C218.116 63.192 217.38 67.16 217.38 69.208C217.38 71.192 217.636 72.184 218.148 72.184C218.532 72.184 219.876 71.576 222.18 70.36L223.332 69.784L225.06 73.144C224.484 73.656 223.716 74.296 222.756 75.064C221.796 75.832 220.004 76.888 217.38 78.232C214.82 79.512 212.516 80.152 210.468 80.152C205.796 80.152 203.46 77.496 203.46 72.184C203.46 69.944 204.164 65.816 205.572 59.8C207.044 53.784 207.78 49.912 207.78 48.184C207.78 46.456 207.236 45.592 206.148 45.592C204.292 45.592 202.02 46.392 199.332 47.992C199.14 49.08 198.5 51.96 197.412 56.632C195.172 66.68 194.052 73.784 194.052 77.944C191.812 78.84 187.78 79.288 181.956 79.288ZM227.73 62.392C227.73 54.392 230.13 48.088 234.93 43.48C239.794 38.808 245.298 36.472 251.442 36.472C255.218 36.472 258.322 37.4 260.754 39.256C263.186 41.112 264.402 43.608 264.402 46.744C264.402 49.816 263.602 52.408 262.002 54.52C260.466 56.632 258.578 58.264 256.338 59.416C251.794 61.656 247.634 63.064 243.858 63.64L241.554 63.928C242.002 69.944 244.466 72.952 248.946 72.952C250.482 72.952 252.114 72.568 253.842 71.8C255.57 71.032 256.914 70.264 257.874 69.496L259.314 68.344L261.618 71.416C261.106 72.12 260.082 73.048 258.546 74.2C257.01 75.352 255.57 76.312 254.226 77.08C250.514 79.128 246.45 80.152 242.034 80.152C237.618 80.152 234.13 78.584 231.57 75.448C229.01 72.312 227.73 67.96 227.73 62.392ZM241.458 59.224C244.722 58.648 247.314 57.272 249.234 55.096C251.154 52.92 252.114 50.104 252.114 46.648C252.114 43.192 251.09 41.464 249.042 41.464C246.61 41.464 244.722 43.544 243.378 47.704C242.098 51.8 241.458 55.64 241.458 59.224Z" fill="url(#paint0_linear_35_7)"/>
<defs>
<linearGradient id="paint0_linear_35_7" x1="135" y1="0" x2="135" y2="98" gradientUnits="userSpaceOnUse">
<stop stop-color="#FE7630"/>
<stop offset="1" stop-color="#FF5800"/>
</linearGradient>
</defs>
</svg>
